<svg width="341" height="103" viewBox="0 0 341 103" fill="none" xmlns="http://www.w3.org/2000/svg">
<ellipse cx="42.2948" cy="43.3675" rx="31.9432" ry="32.7542" fill="white"/>
<path d="M22.1564 68.1433C16.8423 63.5994 13.1366 57.3831 11.6165 50.4567C10.0963 43.5301 10.8469 36.2816 13.7529 29.8358C16.6589 23.39 21.5568 18.109 27.6853 14.8102C33.8137 11.5114 40.8302 10.3788 47.6473 11.5857" stroke="#4460AA"/>
<path d="M66.0401 22.22C70.5767 27.578 73.264 34.3225 73.6833 41.4086C74.1026 48.4948 72.2303 55.5259 68.356 61.4109C64.4818 67.2959 58.8231 71.7047 52.2586 73.9552C45.6943 76.2055 38.5908 76.172 32.0492 73.8615" stroke="#4460AA" stroke-linejoin="round"/>
<path fill-rule="evenodd" clip-rule="evenodd" d="M61.5757 33.892L59.0223 38.4269L55.6711 36.4429L46.0905 62.8143C46.0905 62.8143 32.8243 65.5709 26.7496 75.1135C26.7444 75.4455 26.6593 75.7794 26.4868 76.0858C26.0045 76.9423 25.0039 77.2982 24.1262 76.9792L35.5138 56.7556C36.5249 57.1506 37.6943 56.7472 38.2524 55.7559C38.8718 54.656 38.5042 53.2495 37.4323 52.615C36.3596 51.98 34.9875 52.3566 34.3682 53.4565C33.8086 54.4504 34.056 55.6952 34.9006 56.3944L23.5131 76.6179C22.7991 75.9997 22.5962 74.9281 23.08 74.0688C23.253 73.7615 23.4925 73.5201 23.7698 73.3493C28.7929 63.1841 24.487 50.0246 24.487 50.0246L41.97 28.3316L38.6187 26.3476L41.1721 21.8128L42.7326 22.7366L50.6762 4.246L64.4957 12.4273L55.0704 28.2543L57.7962 29.868L67.7323 14.3434L71.6608 16.6691L60.0144 32.9676L61.5757 33.892ZM57.1651 31.5006L53.1825 29.1428L50.8617 33.2644L54.8444 35.6222L57.1651 31.5006ZM51.0389 35.5583L36.5763 65.2817C36.5763 65.2817 38.0405 64.5301 39.641 63.8483C41.1325 63.2128 42.7679 62.6453 42.7679 62.6453L53.7761 37.1728L51.0389 35.5583Z" fill="#4460AA"/>
<path d="M106.052 65.7567C104.466 65.7567 103.074 65.6122 101.876 65.3231C100.677 65.0701 99.2675 64.6906 97.6462 64.1846C96.9413 63.9317 96.2364 63.7148 95.5315 63.5341C94.8266 63.3173 94.1746 63.1908 93.5754 63.1546C93.1172 63.1185 92.7824 63.0643 92.5709 62.992C92.3594 62.9197 91.9717 62.7029 91.4078 62.3415C91.7602 61.8717 92.0246 61.4922 92.2008 61.2031C92.377 60.8778 92.518 60.426 92.6238 59.8478C93.2582 56.9566 94.3332 51.5536 95.8487 43.6388C97.3643 35.7241 98.122 31.2427 98.122 30.1946C98.122 29.508 97.752 29.1646 97.0118 29.1646C96.4479 29.1646 95.3729 29.2911 93.7869 29.5441C91.0025 29.9417 89.2226 30.1404 88.4472 30.1404C87.6718 30.1404 87.0902 29.9959 86.7025 29.7067C86.3501 29.4176 86.1738 28.8936 86.1738 28.1346C86.1738 27.6648 86.2619 27.1588 86.4382 26.6167C87.1078 26.942 87.707 27.1588 88.2357 27.2673C88.7644 27.3757 89.6455 27.4299 90.8791 27.4299C91.7955 27.4299 92.9938 27.3938 94.4741 27.3215C95.9897 27.2492 97.1175 27.195 97.8577 27.1588C101.382 26.942 103.867 26.8336 105.312 26.8336C111.48 26.8336 116.414 28.2069 120.115 30.9536C123.816 33.7003 125.666 38.2359 125.666 44.5604C125.666 48.8611 124.785 52.6197 123.023 55.8362C121.296 59.0527 118.935 61.5103 115.939 63.2089C112.978 64.9074 109.683 65.7567 106.052 65.7567ZM106.052 63.4257C109.119 63.4257 111.903 62.6125 114.405 60.9862C116.943 59.3238 118.952 57.0288 120.432 54.1015C121.913 51.1741 122.653 47.8492 122.653 44.1267C122.653 38.5611 121.049 34.6218 117.842 32.3088C114.67 29.9959 110.564 28.8394 105.524 28.8394C104.043 28.8394 103.021 28.9478 102.457 29.1646C101.893 29.3815 101.541 29.7971 101.4 30.4115C99.7081 39.049 97.9987 47.9396 96.2717 57.0831C96.0249 58.2034 95.9016 58.9624 95.9016 59.3599C95.9016 59.8297 96.2012 60.2634 96.8003 60.661C97.9634 61.4922 99.3733 62.1608 101.03 62.6667C102.686 63.1727 104.36 63.4257 106.052 63.4257Z" fill="#4460AA"/>
<path d="M160.259 45.9157C160.611 46.0241 160.787 46.3855 160.787 46.9999C160.787 47.9034 160.435 48.8431 159.73 49.8188C159.025 50.7585 158.056 51.5355 156.822 52.1499C155.624 52.7643 154.302 53.0715 152.857 53.0715C150.919 53.0715 149.209 52.5294 147.729 51.4452C147.517 52.4932 147.253 53.5594 146.936 54.6436C146.83 55.0411 146.601 55.9627 146.249 57.4083C145.896 58.8178 145.649 60.0827 145.508 61.2031C145.262 61.7813 144.768 62.4138 144.028 63.1004C143.288 63.751 142.407 64.3111 141.385 64.781C140.363 65.2508 139.358 65.4857 138.371 65.4857C137.279 65.4857 136.221 65.1966 135.199 64.6183C134.177 64.0401 133.331 63.2631 132.662 62.2873C132.027 61.3115 131.71 60.2273 131.71 59.0346C132.203 57.5167 132.609 56.0892 132.926 54.752C133.243 53.4148 133.543 52.0596 133.825 50.6862L134.353 47.9757C134.53 47.1445 135.005 46.3313 135.781 45.5362C136.556 44.705 137.49 44.0364 138.583 43.5304C139.711 42.9883 140.838 42.7173 141.966 42.7173C142.389 42.7173 142.988 42.7896 143.764 42.9341C143.87 42.1029 144.046 41.5246 144.293 41.1994C144.574 40.8741 145.015 40.7115 145.614 40.7115C145.967 40.7115 146.372 40.7657 146.83 40.8741C146.654 41.886 146.566 42.7534 146.566 43.4762C146.566 45.5724 147.183 47.3432 148.416 48.7889C149.65 50.2345 151.324 50.9573 153.439 50.9573C155.025 50.9573 156.382 50.5236 157.51 49.6562C158.673 48.7889 159.589 47.542 160.259 45.9157ZM143.182 60.2815C143.464 58.8359 143.87 57.1915 144.398 55.3483C145.103 52.9269 145.561 50.9753 145.773 49.4936C144.997 48.4817 144.469 47.2529 144.187 45.8073C144.187 45.6627 144.152 45.5543 144.081 45.482C144.046 45.3736 143.94 45.3013 143.764 45.2652C143.235 45.0483 142.636 44.9399 141.966 44.9399C140.662 44.9399 139.534 45.3013 138.583 46.0241C137.631 46.7469 137.032 47.6143 136.785 48.6262C136.679 49.0599 136.292 50.7585 135.622 53.722C135.305 55.4567 134.917 57.1734 134.459 58.872C134.459 60.2092 134.9 61.2573 135.781 62.0162C136.662 62.739 137.596 63.1004 138.583 63.1004C139.429 63.1004 140.327 62.7932 141.279 62.1789C142.266 61.5645 142.9 60.932 143.182 60.2815Z" fill="#4460AA"/>
<path d="M192.388 54.9689C192.635 55.4025 192.723 55.8001 192.652 56.1615C192.371 57.4987 191.542 58.9082 190.168 60.3899C188.793 61.8717 187.119 63.1185 185.145 64.1304C183.207 65.1062 181.303 65.5941 179.435 65.5941C177.462 65.5941 175.981 64.9797 174.994 63.751C174.008 62.5222 173.514 60.7874 173.514 58.5467C173.514 57.9685 173.532 57.5348 173.567 57.2457C172.122 59.631 170.342 61.6187 168.227 63.2089C166.148 64.799 164.227 65.5941 162.465 65.5941C160.984 65.5941 159.857 65.0159 159.081 63.8594C158.341 62.6667 157.971 61.0404 157.971 58.9804C157.971 56.9927 158.658 52.5474 160.033 45.6446L154.905 45.6989C154.587 45.6989 154.358 45.5543 154.217 45.2652C154.711 44.2532 155.134 43.5666 155.486 43.2052L160.509 43.2594L162.941 31.6583C163.258 30.1043 163.54 29.0743 163.786 28.5683C164.068 28.0624 164.562 27.8094 165.267 27.8094C165.76 27.8094 166.113 27.9539 166.324 28.2431C166.289 28.3876 166.148 28.8032 165.901 29.4899C165.69 30.1404 165.478 30.9355 165.267 31.8752C164.597 35.0194 163.839 38.8141 162.993 43.2594L176.105 43.3678L178.801 30.7367C178.977 29.9417 179.242 29.3634 179.594 29.002C179.982 28.6406 180.528 28.4599 181.233 28.4599C181.691 28.4599 181.92 28.5683 181.92 28.7852C181.85 29.0381 181.709 29.4176 181.497 29.9236C181.321 30.4296 181.162 31.062 181.021 31.821L178.642 43.3678L188 43.422C188 43.8918 187.877 44.2894 187.63 44.6146C187.383 44.9399 187.031 45.1025 186.573 45.1025L178.272 45.211C176.863 52.2945 176.158 56.6313 176.158 58.2215C176.158 60.0285 176.492 61.3476 177.162 62.1789C177.867 62.9739 178.889 63.3715 180.228 63.3715C182.378 63.3715 184.528 62.5945 186.678 61.0404C188.864 59.4503 190.767 57.4264 192.388 54.9689ZM175.735 45.2652L162.518 45.5904C161.214 52.7462 160.561 57.0108 160.561 58.3841C160.561 59.902 160.791 61.1127 161.249 62.0162C161.707 62.9197 162.341 63.3715 163.152 63.3715C164.35 63.3715 165.778 62.7029 167.434 61.3657C169.126 60.0285 170.677 58.2396 172.087 55.9989C173.497 53.722 174.466 51.3006 174.994 48.7346L175.735 45.2652Z" fill="#4460AA"/>
<path d="M212.359 52.0957C212.993 52.2041 213.31 52.5655 213.31 53.1799C213.31 54.6255 212.394 56.3241 210.561 58.2757C208.764 60.1911 206.631 61.8536 204.164 63.2631C201.697 64.6364 199.635 65.3231 197.979 65.3231C196.392 65.3231 195.018 64.9074 193.855 64.0762C192.692 63.2089 191.793 62.2511 191.159 61.2031C190.559 60.155 190.26 59.378 190.26 58.872C190.824 56.812 191.441 53.9569 192.11 50.3067L192.692 47.271C192.833 46.5481 193.344 45.8073 194.225 45.0483C195.106 44.2532 196.093 43.6027 197.186 43.0967C198.278 42.5546 199.159 42.2836 199.829 42.2836C200.358 42.2836 200.992 42.4643 201.732 42.8257C202.508 43.151 203.177 43.675 203.741 44.3978C204.34 45.1206 204.64 46.0422 204.64 47.1625C204.64 48.4636 204.217 49.6924 203.371 50.8488C202.525 52.0053 201.274 52.945 199.617 53.6678C197.961 54.3906 195.97 54.752 193.643 54.752L192.903 58.3841C192.903 58.7094 193.079 59.2515 193.432 60.0104C193.82 60.7694 194.419 61.456 195.229 62.0704C196.075 62.6848 197.133 62.992 198.401 62.992C200.093 62.992 201.873 62.4318 203.741 61.3115C205.609 60.155 207.319 58.7274 208.869 57.0288C210.42 55.3303 211.583 53.6859 212.359 52.0957ZM199.406 44.5062C198.983 44.5062 198.437 44.6869 197.767 45.0483C197.097 45.4097 196.481 45.8615 195.917 46.4036C195.388 46.9457 195.071 47.4517 194.965 47.9215C194.613 49.5478 194.295 51.1922 194.013 52.8546C196.727 52.7462 198.772 52.2041 200.146 51.2283C201.521 50.2164 202.208 49.078 202.208 47.8131C202.208 46.9096 201.891 46.1325 201.256 45.482C200.622 44.8315 200.005 44.5062 199.406 44.5062Z" fill="#4460AA"/>
<path d="M248.147 7.69727C250.191 7.69727 251.865 8.07674 253.169 8.83569C254.509 9.55849 255.337 10.5162 255.654 11.7088V12.1967C253.645 11.1848 251.601 10.6788 249.521 10.6788C245.257 10.6788 241.485 12.7208 238.208 16.8046C234.965 20.8885 232.145 27.3215 229.749 36.1036C228.726 39.826 227.669 44.2532 226.577 49.3852C225.484 54.481 224.938 58.0046 224.938 59.9562C224.938 60.8597 225.096 61.5645 225.413 62.0704C225.731 62.5403 226.295 62.7752 227.105 62.7752C228.092 62.7752 229.202 62.4318 230.436 61.7452C231.669 61.0224 232.885 59.9562 234.084 58.5467C235.317 57.1373 236.392 55.4387 237.309 53.451C237.802 53.451 238.049 53.8846 238.049 54.752C238.049 56.0892 237.45 57.589 236.251 59.2515C235.053 60.9139 233.573 62.3415 231.81 63.5341C230.048 64.7267 228.356 65.3231 226.735 65.3231C225.607 65.3231 224.691 65.0159 223.986 64.4015C223.281 63.7871 222.788 62.9197 222.506 61.7994C221.695 62.8474 220.691 63.7329 219.492 64.4557C218.329 65.1424 217.219 65.4857 216.161 65.4857C215.21 65.4857 214.258 65.1785 213.307 64.5641C212.355 63.9497 211.58 63.1908 210.98 62.2873C210.381 61.3476 210.082 60.4441 210.082 59.5767C210.963 56.541 211.879 52.6559 212.831 47.9215C212.972 47.1264 213.465 46.2771 214.311 45.3736C215.192 44.4701 216.25 43.7292 217.483 43.151C218.717 42.5366 219.915 42.2294 221.078 42.2294C222.418 42.2294 223.792 42.6269 225.202 43.422C225.872 40.6392 226.559 37.9829 227.264 35.4531C229.097 28.9478 231.017 23.6713 233.026 19.6236C235.035 15.5759 237.256 12.5762 239.688 10.6246C242.155 8.67306 244.975 7.69727 248.147 7.69727ZM222.981 54.6436C223.404 52.186 223.986 49.2225 224.726 45.7531C223.528 44.958 222.329 44.5604 221.131 44.5604C219.898 44.5604 218.717 44.9399 217.589 45.6989C216.461 46.4217 215.668 47.4517 215.21 48.7889C214.963 49.5117 214.558 51.3548 213.994 54.3183C213.641 56.1253 213.271 57.8239 212.884 59.4141C212.884 60.2453 213.271 61.0946 214.047 61.962C214.822 62.8294 215.65 63.2631 216.532 63.2631C217.236 63.2631 217.994 62.992 218.805 62.4499C219.651 61.8717 220.426 61.0585 221.131 60.0104C221.871 58.9262 222.382 57.6613 222.664 56.2157L222.981 54.6436Z" fill="#4460AA"/>
<path d="M242.522 65.7025C240.478 65.7025 238.469 65.3953 236.495 64.781C234.521 64.1666 233.358 63.498 233.006 62.7752C233.182 61.9078 233.341 60.7332 233.482 59.2515C233.623 57.7336 233.693 56.5771 233.693 55.782C233.975 55.529 234.38 55.4025 234.909 55.4025C234.909 57.4625 235.121 59.0708 235.543 60.2273C236.002 61.3838 236.742 62.2331 237.764 62.7752C238.786 63.2811 240.231 63.5341 242.099 63.5341C245.412 63.5341 248.161 62.8294 250.347 61.4199C252.567 59.9743 253.677 57.9324 253.677 55.2941C253.677 53.9208 253.29 52.5655 252.514 51.2283C251.739 49.855 250.364 48.2287 248.39 46.3494L246.963 44.9941C245.13 43.2955 243.773 41.8318 242.892 40.6031C242.046 39.3381 241.623 37.8203 241.623 36.0494C241.623 34.3146 242.046 32.7425 242.892 31.3331C243.773 29.8874 245.007 28.7671 246.593 27.972C248.214 27.1408 250.065 26.7252 252.144 26.7252C254.188 26.7252 255.933 27.0866 257.378 27.8094C258.823 28.5322 259.757 29.3815 260.18 30.3573C260.18 31.4415 260.021 32.6883 259.704 34.0978C259.387 35.5073 259.193 36.3385 259.123 36.5915C258.665 36.5915 258.224 36.5192 257.801 36.3746L257.96 35.2904C258.03 34.6399 258.065 34.1159 258.065 33.7183C258.065 32.0559 257.625 30.8632 256.744 30.1404C255.898 29.3815 254.558 29.002 252.726 29.002C250.153 29.002 248.091 29.5983 246.54 30.791C245.025 31.9836 244.267 33.5376 244.267 35.4531C244.267 36.9348 244.725 38.2901 245.641 39.5189C246.558 40.7115 247.967 42.1752 249.871 43.9099L250.981 44.9399C253.237 47.036 254.77 48.7346 255.581 50.0357C256.426 51.3367 256.849 52.8366 256.849 54.5352C256.849 56.9927 256.109 59.0708 254.629 60.7694C253.184 62.4318 251.351 63.6787 249.131 64.5099C246.945 65.305 244.743 65.7025 242.522 65.7025Z" fill="#4460AA"/>
<path d="M269.422 65.4315C268.188 65.4315 267.078 65.0159 266.091 64.1846C265.139 63.3173 264.664 62.0524 264.664 60.3899C265.192 58.6552 266.109 54.8062 267.413 48.8431C268.047 45.9157 268.435 44.1629 268.576 43.5846C269.034 42.7896 269.668 42.392 270.479 42.392C271.008 42.392 271.272 42.5727 271.272 42.9341C271.025 43.8376 270.673 45.2832 270.215 47.271C269.792 49.2225 269.457 50.7585 269.21 51.8789C268.259 56.3603 267.607 59.2334 267.254 60.4983C267.254 61.3296 267.483 61.9801 267.941 62.4499C268.435 62.8836 269.069 63.1004 269.845 63.1004C271.607 63.1004 273.369 62.468 275.131 61.2031C276.929 59.902 278.497 58.4022 279.837 56.7036C281.211 55.005 282.233 53.5413 282.903 52.3125C283.115 52.3848 283.256 52.5113 283.326 52.692C283.397 52.8366 283.432 53.1076 283.432 53.5052C283.432 54.0473 283.256 54.6074 282.903 55.1857C281 58.2576 278.867 60.7332 276.506 62.6125C274.145 64.4918 271.783 65.4315 269.422 65.4315ZM271.854 35.6157C271.36 35.6157 270.972 35.4531 270.69 35.1278C270.409 34.7664 270.268 34.3146 270.268 33.7725C270.268 33.0497 270.497 32.3992 270.955 31.821C271.413 31.2066 271.995 30.8994 272.699 30.8994C273.263 30.8994 273.669 31.0801 273.915 31.4415C274.197 31.8029 274.338 32.2366 274.338 32.7425C274.338 33.4653 274.092 34.1339 273.598 34.7483C273.14 35.3266 272.559 35.6157 271.854 35.6157Z" fill="#4460AA"/>
<path d="M297.114 40.3862C297.537 40.8199 297.96 41.1813 298.383 41.4704C298.736 41.7596 298.965 41.9945 299.07 42.1752C299.211 42.3197 299.282 42.5366 299.282 42.8257C299.282 43.1148 299.211 43.4762 299.07 43.9099C298.366 46.6927 297.431 50.6862 296.268 55.8904C295.493 59.4322 294.788 62.468 294.154 64.9978C292.321 72.6234 290.435 78.7673 288.497 83.4294C286.594 88.0915 284.197 91.6513 281.307 94.1089C278.452 96.6025 274.874 97.8494 270.574 97.8494C267.755 97.8494 265.376 97.3434 263.437 96.3315C261.499 95.3557 260.071 94.1089 259.155 92.591C258.239 91.0731 257.78 89.519 257.78 87.9289C257.78 87.5675 257.816 87.2603 257.886 87.0073C257.957 86.7904 258.133 86.4471 258.415 85.9773C260.494 91.7959 264.583 94.7052 270.68 94.7052C274.487 94.7052 277.659 93.5487 280.196 91.2357C282.734 88.9589 284.866 85.7243 286.594 81.532C288.321 77.3759 290.03 71.8825 291.722 65.052L291.986 63.9678C292.057 63.6787 292.127 63.4076 292.198 63.1546C292.268 62.9017 292.321 62.6487 292.356 62.3957C291.369 63.3715 290.224 64.1304 288.92 64.6725C287.616 65.2146 286.523 65.4857 285.642 65.4857C284.726 65.4857 283.827 65.1785 282.946 64.5641C282.1 63.9497 281.412 63.1908 280.884 62.2873C280.355 61.3476 280.091 60.4441 280.091 59.5767C280.302 58.7094 280.549 57.6071 280.831 56.2699C281.113 54.9327 281.324 53.9027 281.465 53.1799L282.734 47.3252C282.91 46.5662 283.474 45.7531 284.426 44.8857C285.378 44.0183 286.453 43.2955 287.651 42.7173C288.884 42.139 289.942 41.8499 290.823 41.8499C291.775 41.8499 292.709 42.2113 293.625 42.9341C294.541 43.6569 295.352 44.6146 296.057 45.8073C296.268 44.7953 296.462 43.6027 296.638 42.2294L296.903 40.4404L297.114 40.3862ZM295.422 48.6804C294.753 47.3432 293.977 46.2771 293.096 45.482C292.25 44.6869 291.422 44.2894 290.611 44.2894C290.048 44.2894 289.36 44.4881 288.55 44.8857C287.739 45.2471 286.999 45.7531 286.329 46.4036C285.66 47.018 285.237 47.7046 285.06 48.4636C284.814 49.5478 284.355 51.9692 283.686 55.7278L283.051 59.4141C283.051 60.2815 283.351 61.0946 283.95 61.8536C284.585 62.6125 285.307 62.992 286.118 62.992C286.717 62.992 287.563 62.7752 288.655 62.3415C289.748 61.9078 290.752 61.2934 291.669 60.4983C292.585 59.6671 293.167 58.7094 293.414 57.6252L295.422 48.6804Z" fill="#4460AA"/>
<path d="M329.739 51.8246C330.092 51.8246 330.339 51.9873 330.479 52.3125C330.656 52.6017 330.744 52.945 330.744 53.3425C330.744 54.6436 330.074 56.288 328.735 58.2757C327.396 60.2634 325.686 61.9982 323.607 63.4799C321.562 64.9617 319.536 65.7025 317.527 65.7025C316.258 65.7025 315.271 65.3773 314.566 64.7267C313.897 64.0762 313.562 63.0824 313.562 61.7452C313.562 59.902 314.055 57.4083 315.042 54.2641C316.029 51.0838 316.928 48.4455 317.738 46.3494C317.597 46.1325 317.456 46.0241 317.315 46.0241C317.174 46.0241 317.016 46.0783 316.84 46.1867C316.205 46.5843 315.165 47.4697 313.72 48.8431C312.275 50.2164 310.865 51.662 309.491 53.1799C308.116 54.6978 307.182 55.9266 306.689 56.8662C306.125 58.4203 305.772 59.4141 305.631 59.8478C305.49 60.2453 305.349 60.9139 305.208 61.8536L304.733 64.2931C304.697 64.4015 304.662 64.546 304.627 64.7267C304.592 64.8713 304.539 64.9617 304.468 64.9978C304.433 65.0339 304.363 65.052 304.257 65.052C303.94 65.052 303.517 65.0159 302.988 64.9436C302.495 64.8713 302.248 64.7629 302.248 64.6183C302.248 64.1846 302.371 63.4799 302.618 62.5041C302.865 61.5283 303.111 60.6429 303.358 59.8478C303.605 59.0527 303.799 58.4383 303.94 58.0046L304.415 56.4867C305.438 52.8727 306.125 50.2525 306.477 48.6262C306.865 46.9638 307.235 45.1206 307.588 43.0967C307.623 42.7353 307.87 42.5546 308.328 42.5546C308.645 42.5546 308.997 42.645 309.385 42.8257C309.808 42.9703 310.055 43.1871 310.125 43.4762C309.984 44.1267 309.72 45.229 309.332 46.7831C308.98 48.3371 308.539 50.0538 308.011 51.9331C310.055 49.5839 312.169 47.4517 314.355 45.5362C316.575 43.6208 318.055 42.6631 318.796 42.6631C319.148 42.6631 319.571 42.8438 320.064 43.2052C320.558 43.5666 320.857 43.9099 320.963 44.2352C319.835 47.3432 318.76 50.7404 317.738 54.4267C316.716 58.0769 316.205 60.4803 316.205 61.6367C316.205 62.9017 316.91 63.5341 318.32 63.5341C320.399 63.5341 322.496 62.3415 324.611 59.9562C326.761 57.571 328.471 54.8604 329.739 51.8246Z" fill="#4460AA"/>
</svg>
