<svg width="63" height="58" viewBox="0 0 63 58" fill="none" xmlns="http://www.w3.org/2000/svg">
<g clip-path="url(#clip0_26_46376)">
<path d="M28.9128 31.9109C28.9015 31.9109 28.8944 31.9106 28.892 31.9105L27.5456 31.9106V31.7121H28.8968C28.9281 31.7132 29.5664 31.7313 30.1545 31.0177C31.0309 29.9542 31.7506 27.3214 30.2023 20.8186C28.1204 12.0746 29.8568 4.34975 30.6999 1.43441C30.7415 1.29018 30.7489 1.13826 30.7216 0.990656C30.6944 0.843056 30.6332 0.70382 30.5428 0.583947C30.4525 0.464074 30.3355 0.366849 30.2012 0.299956C30.0668 0.233063 29.9187 0.198333 29.7686 0.198512H9.66186C9.50899 0.198717 9.35832 0.234963 9.22209 0.304307C9.08586 0.373652 8.96789 0.474142 8.87777 0.59762C8.52059 1.08896 8.03041 2.03286 7.72368 3.73958L7.52832 3.7045C7.84169 1.96069 8.34781 0.98902 8.7172 0.480917C8.82576 0.332132 8.96788 0.211044 9.13202 0.127484C9.29615 0.0439241 9.47767 0.000247227 9.66185 5.40151e-07H29.7686C29.9495 -0.000173508 30.1279 0.0417163 30.2898 0.12236C30.4517 0.203004 30.5927 0.320193 30.7015 0.464668C30.8103 0.609142 30.8841 0.776945 30.9169 0.954818C30.9497 1.13269 30.9407 1.31576 30.8906 1.48956C30.0518 4.38979 28.3244 12.0745 30.3954 20.7726C31.9655 27.3669 31.2107 30.0567 30.301 31.152C29.7011 31.8743 29.04 31.9109 28.9128 31.9109Z" fill="#DADBE1"/>
<path d="M25.2897 35.534C25.2785 35.534 25.2714 35.5337 25.2689 35.5335L23.9226 35.5337V35.3352H25.2738C25.3052 35.3361 25.9434 35.3543 26.5314 34.6407C27.4078 33.5772 28.1275 30.9445 26.5792 24.4416C24.4973 15.6976 26.2337 7.9728 27.0769 5.05746C27.1184 4.91322 27.1259 4.7613 27.0986 4.6137C27.0713 4.4661 27.0101 4.32687 26.9198 4.20699C26.8295 4.08712 26.7125 3.9899 26.5781 3.923C26.4438 3.85611 26.2957 3.82138 26.1456 3.82156H6.03882C5.88595 3.82176 5.73529 3.85801 5.59906 3.92735C5.46282 3.9967 5.34486 4.09719 5.25474 4.22067C4.89755 4.712 4.40738 5.6559 4.10066 7.36263L3.90527 7.32754C4.21866 5.58374 4.72478 4.61207 5.09417 4.10396C5.20273 3.95518 5.34485 3.83409 5.50898 3.75053C5.67312 3.66697 5.85464 3.62329 6.03882 3.62305H26.1456C26.3265 3.62287 26.5049 3.66476 26.6668 3.74541C26.8287 3.82605 26.9696 3.94324 27.0785 4.08771C27.1873 4.23219 27.261 4.39999 27.2938 4.57787C27.3267 4.75574 27.3177 4.93881 27.2676 5.11261C26.4288 8.01283 24.7014 15.6976 26.7724 24.3957C28.3424 30.99 27.5876 33.6798 26.678 34.775C26.078 35.4974 25.4169 35.534 25.2897 35.534Z" fill="#DADBE1"/>
<path d="M21.6669 39.157C21.6557 39.157 21.6486 39.1567 21.6461 39.1566L1.84929 39.1567C1.65869 39.157 1.47094 39.1105 1.30247 39.0213C1.134 38.9322 0.989941 38.8031 0.882906 38.6454C0.775872 38.4877 0.709121 38.3062 0.688493 38.1167C0.667866 37.9272 0.693993 37.7356 0.764586 37.5585C1.48288 35.7639 2.45003 31.4584 0.857044 22.7854C-1.02399 12.5442 0.660036 8.84296 1.47137 7.72701C1.57993 7.57822 1.72205 7.45713 1.88619 7.37357C2.05033 7.29001 2.23186 7.24634 2.41604 7.24609H22.5228C22.7037 7.24592 22.8821 7.28781 23.044 7.36845C23.2059 7.4491 23.3468 7.56629 23.4557 7.71076C23.5645 7.85524 23.6382 8.02304 23.6711 8.20091C23.7039 8.37878 23.6949 8.56185 23.6448 8.73566C22.806 11.6359 21.0786 19.3206 23.1496 28.0187C24.7196 34.613 23.9649 37.3028 23.0552 38.3981C22.4552 39.1204 21.7941 39.157 21.6669 39.157ZM2.41604 7.44461C2.26317 7.44481 2.1125 7.48105 1.97627 7.5504C1.84003 7.61974 1.72206 7.72023 1.63193 7.84371C0.835648 8.93897 -0.814865 12.5839 1.05228 22.7495C2.57406 31.0347 1.836 35.4159 0.94887 37.6323C0.889081 37.7785 0.866639 37.9373 0.88357 38.0944C0.9005 38.2515 0.95627 38.4018 1.04585 38.532C1.13467 38.6633 1.25437 38.7709 1.39445 38.8452C1.53453 38.9195 1.69071 38.9583 1.84928 38.9582H21.651C21.6823 38.9597 22.3206 38.9774 22.9087 38.2638C23.785 37.2003 24.5047 34.5675 22.9564 28.0647C20.8745 19.3207 22.6109 11.5958 23.4541 8.6805C23.4956 8.53627 23.5031 8.38435 23.4758 8.23675C23.4485 8.08915 23.3873 7.94991 23.297 7.83004C23.2067 7.71017 23.0897 7.61294 22.9553 7.54605C22.821 7.47916 22.6729 7.44443 22.5228 7.44461H2.41604Z" fill="#78797D"/>
<path d="M19.103 16.1779H3.32139C3.11079 16.1779 2.90883 16.0943 2.75991 15.9454C2.611 15.7965 2.52734 15.5945 2.52734 15.3839C2.52734 15.1733 2.611 14.9713 2.75991 14.8224C2.90883 14.6735 3.11079 14.5898 3.32139 14.5898H19.103C19.3136 14.5898 19.5156 14.6735 19.6645 14.8224C19.8134 14.9713 19.8971 15.1733 19.8971 15.3839C19.8971 15.5945 19.8134 15.7965 19.6645 15.9454C19.5156 16.0943 19.3136 16.1779 19.103 16.1779Z" fill="#4460AA"/>
<path d="M19.103 19.5529H3.32139C3.11079 19.5529 2.90883 19.4693 2.75991 19.3204C2.611 19.1715 2.52734 18.9695 2.52734 18.7589C2.52734 18.5483 2.611 18.3463 2.75991 18.1974C2.90883 18.0485 3.11079 17.9648 3.32139 17.9648H19.103C19.3136 17.9648 19.5156 18.0485 19.6645 18.1974C19.8134 18.3463 19.8971 18.5483 19.8971 18.7589C19.8971 18.9695 19.8134 19.1715 19.6645 19.3204C19.5156 19.4693 19.3136 19.5529 19.103 19.5529Z" fill="#DADBE1"/>
<path d="M19.103 22.9279H3.32139C3.11079 22.9279 2.90883 22.8443 2.75991 22.6954C2.611 22.5465 2.52734 22.3445 2.52734 22.1339C2.52734 21.9233 2.611 21.7213 2.75991 21.5724C2.90883 21.4235 3.11079 21.3398 3.32139 21.3398H19.103C19.3136 21.3398 19.5156 21.4235 19.6645 21.5724C19.8134 21.7213 19.8971 21.9233 19.8971 22.1339C19.8971 22.3445 19.8134 22.5465 19.6645 22.6954C19.5156 22.8443 19.3136 22.9279 19.103 22.9279Z" fill="#DADBE1"/>
<path d="M20.294 26.3029H4.51231C4.30171 26.3029 4.09974 26.2193 3.95083 26.0704C3.80192 25.9215 3.71826 25.7195 3.71826 25.5089C3.71826 25.2983 3.80192 25.0963 3.95083 24.9474C4.09974 24.7985 4.30171 24.7148 4.51231 24.7148H20.294C20.5045 24.7148 20.7065 24.7985 20.8554 24.9474C21.0043 25.0963 21.088 25.2983 21.088 25.5089C21.088 25.7195 21.0043 25.9215 20.8554 26.0704C20.7065 26.2193 20.5045 26.3029 20.294 26.3029Z" fill="#DADBE1"/>
<path d="M20.294 29.6779H4.51231C4.30171 29.6779 4.09974 29.5943 3.95083 29.4454C3.80192 29.2965 3.71826 29.0945 3.71826 28.8839C3.71826 28.6733 3.80192 28.4713 3.95083 28.3224C4.09974 28.1735 4.30171 28.0898 4.51231 28.0898H20.294C20.5045 28.0898 20.7065 28.1735 20.8554 28.3224C21.0043 28.4713 21.088 28.6733 21.088 28.8839C21.088 29.0945 21.0043 29.2965 20.8554 29.4454C20.7065 29.5943 20.5045 29.6779 20.294 29.6779Z" fill="#DADBE1"/>
<path d="M10.7656 12.8049H3.32139C3.11079 12.8049 2.90883 12.7212 2.75991 12.5723C2.611 12.4234 2.52734 12.2214 2.52734 12.0108C2.52734 11.8002 2.611 11.5983 2.75991 11.4494C2.90883 11.3005 3.11079 11.2168 3.32139 11.2168H10.7656C10.9762 11.2168 11.1781 11.3005 11.327 11.4494C11.4759 11.5983 11.5596 11.8002 11.5596 12.0108C11.5596 12.2214 11.4759 12.4234 11.327 12.5723C11.1781 12.7212 10.9762 12.8049 10.7656 12.8049Z" fill="#4460AA"/>
<path d="M9.80391 35.1195C9.96411 34.4411 10.7169 34.2187 11.3323 34.2436C11.7211 34.2698 12.1068 34.3308 12.4847 34.4259C12.8802 34.5144 13.2718 34.6192 13.6614 34.7303C14.3759 34.934 15.083 35.1804 15.8093 35.3398C16.4139 35.4724 17.0709 35.5502 17.6739 35.3671C18.2535 35.1911 18.7452 34.759 18.9029 34.1616C19.0515 33.5987 18.8474 32.9832 18.302 32.726C17.8045 32.4914 17.1762 32.6107 16.9296 33.1412C16.6516 33.7394 16.9294 34.3917 17.3695 34.8246C17.6197 35.0595 17.8938 35.2677 18.1872 35.4456C18.485 35.6486 18.8165 35.7971 19.1662 35.8841C19.7404 36.0068 20.4244 35.8261 20.7205 35.2775C20.7863 35.1533 20.8259 35.0169 20.8368 34.8768C20.8544 34.6861 20.5565 34.6873 20.5391 34.8768C20.4889 35.4231 19.8492 35.6789 19.3708 35.619C19.0479 35.5655 18.7395 35.4458 18.465 35.2674C18.2002 35.113 17.9492 34.9359 17.7149 34.7381C17.3091 34.387 16.9288 33.8092 17.2013 33.2612C17.4232 32.8151 18.0016 32.8195 18.3534 33.1073C18.7795 33.4557 18.7035 34.0882 18.4225 34.502C18.1113 34.9602 17.5474 35.1522 17.0156 35.173C16.4379 35.1955 15.8649 35.0629 15.3127 34.9061C14.6266 34.7112 13.9474 34.4932 13.2579 34.3098C12.8665 34.2056 12.4721 34.1116 12.0737 34.0385C11.6969 33.9555 11.31 33.9287 10.9254 33.959C10.304 34.0308 9.66977 34.3925 9.51678 35.0403C9.47277 35.2267 9.75981 35.3062 9.80391 35.1195L9.80391 35.1195Z" fill="#191A1B"/>
<path d="M20.7451 35.1891C20.7075 35.1577 20.6799 35.1159 20.666 35.069C20.6521 35.022 20.6524 34.972 20.6668 34.9252C20.6813 34.8784 20.7093 34.8369 20.7473 34.806C20.7852 34.775 20.8315 34.7561 20.8803 34.7514C21.4217 34.6991 21.968 34.7551 22.4875 34.9161L27.7794 36.5504C27.8479 36.5716 27.9115 36.606 27.9667 36.6518C28.0219 36.6976 28.0675 36.7537 28.101 36.8171C28.1345 36.8805 28.1552 36.9499 28.1618 37.0213C28.1685 37.0926 28.161 37.1646 28.1399 37.2331C28.1187 37.3016 28.0843 37.3653 28.0385 37.4205C27.9928 37.4757 27.9366 37.5213 27.8732 37.5548C27.8098 37.5882 27.7405 37.6089 27.6691 37.6156C27.5977 37.6222 27.5257 37.6148 27.4572 37.5936L22.1654 35.9593C21.6455 35.7994 21.1627 35.5375 20.7451 35.1891Z" fill="#191A1B"/>
<path d="M42.4371 41.978C42.2933 41.9177 42.1646 41.8266 42.0598 41.7112C41.9551 41.5957 41.8769 41.4587 41.8309 41.3098C41.7848 41.1609 41.7719 41.0037 41.7932 40.8492C41.8145 40.6948 41.8693 40.5469 41.9539 40.416L41.0469 35.6724L43.3587 35.4922L43.4982 40.1321C43.7088 40.2888 43.8545 40.5173 43.9078 40.7742C43.9611 41.0312 43.9184 41.2988 43.7876 41.5264C43.6568 41.7539 43.447 41.9255 43.1981 42.0088C42.9492 42.092 42.6785 42.0811 42.4371 41.978Z" fill="#FFB8B8"/>
<path d="M40.9041 39.5304L38.5494 28.5644C38.4527 28.114 38.5389 27.6437 38.789 27.2568C39.0392 26.87 39.4327 26.5983 39.8831 26.5016C40.3335 26.4049 40.8039 26.4911 41.1907 26.7412C41.5776 26.9913 41.8492 27.3848 41.9459 27.8352L44.3006 38.8012C44.3253 38.917 44.3031 39.0378 44.2388 39.1373C44.1745 39.2367 44.0734 39.3066 43.9577 39.3316L41.4345 39.8734C41.3772 39.8857 41.318 39.8866 41.2603 39.8761C41.2026 39.8655 41.1475 39.8437 41.0983 39.8118C41.049 39.78 41.0065 39.7387 40.9732 39.6905C40.9398 39.6422 40.9164 39.5878 40.9041 39.5304Z" fill="#4460AA"/>
<path d="M37.0394 56.7815H35.8226L35.2437 52.0879L37.0397 52.088L37.0394 56.7815Z" fill="#FFB8B8"/>
<path d="M34.9532 56.4336H37.3V57.9112H33.4756C33.4756 57.7172 33.5138 57.525 33.5881 57.3457C33.6623 57.1665 33.7712 57.0036 33.9084 56.8664C34.0456 56.7292 34.2085 56.6203 34.3877 56.5461C34.567 56.4718 34.7591 56.4336 34.9532 56.4336Z" fill="#191A1B"/>
<path d="M41.1087 56.6819H39.8919L39.313 51.9883L41.109 51.9884L41.1087 56.6819Z" fill="#FFB8B8"/>
<path d="M39.0225 56.334H41.3693V57.8116H37.5449C37.5449 57.6176 37.5831 57.4254 37.6574 57.2461C37.7317 57.0669 37.8405 56.904 37.9777 56.7668C38.1149 56.6296 38.2778 56.5207 38.4571 56.4465C38.6363 56.3722 38.8285 56.334 39.0225 56.334Z" fill="#191A1B"/>
<path d="M35.5813 55.9055C35.5357 55.868 35.498 55.8218 35.4704 55.7696C35.4429 55.7175 35.426 55.6603 35.4209 55.6015L34.0062 40.0403C34.0007 39.9799 34.0076 39.919 34.0264 39.8613C34.0452 39.8037 34.0756 39.7504 34.1157 39.7049C34.1557 39.6593 34.2046 39.6224 34.2594 39.5964C34.3142 39.5704 34.3737 39.5558 34.4343 39.5535L41.5291 39.2874C41.5905 39.2851 41.6517 39.2955 41.7089 39.318C41.7661 39.3404 41.818 39.3744 41.8615 39.4178C41.905 39.4613 41.939 39.5132 41.9615 39.5704C41.984 39.6276 41.9944 39.6888 41.9922 39.7502L41.425 55.2516C41.4209 55.3601 41.3774 55.4634 41.3027 55.5422C41.228 55.621 41.1273 55.67 41.0191 55.68L39.5886 55.8101C39.5293 55.8155 39.4695 55.809 39.4127 55.7909C39.3559 55.7728 39.3034 55.7436 39.2581 55.7049C39.2128 55.6662 39.1757 55.6189 39.149 55.5657C39.1222 55.5124 39.1065 55.4544 39.1025 55.3949L38.446 45.5471C38.4455 45.5282 38.4413 45.5096 38.4335 45.4923C38.4258 45.475 38.4147 45.4595 38.4009 45.4465C38.387 45.4336 38.3708 45.4236 38.353 45.417C38.3353 45.4104 38.3164 45.4074 38.2975 45.4082H38.2969C38.2779 45.4075 38.259 45.4105 38.2412 45.4172C38.2234 45.4239 38.2072 45.434 38.1934 45.4471C38.1796 45.4601 38.1685 45.4758 38.1609 45.4932C38.1532 45.5106 38.1491 45.5293 38.1488 45.5483L37.5613 55.4625C37.5554 55.5687 37.5116 55.6692 37.438 55.7459C37.3644 55.8225 37.2657 55.8703 37.1598 55.8805L35.9101 56.0055C35.8514 56.0115 35.7921 56.0058 35.7356 55.9886C35.6792 55.9714 35.6267 55.9432 35.5813 55.9055H35.5813Z" fill="#191A1B"/>
<path d="M38.3104 24.1706C39.6568 24.1706 40.7482 23.0791 40.7482 21.7327C40.7482 20.3864 39.6568 19.2949 38.3104 19.2949C36.964 19.2949 35.8726 20.3864 35.8726 21.7327C35.8726 23.0791 36.964 24.1706 38.3104 24.1706Z" fill="#FFB8B8"/>
<path d="M33.6157 40.146C33.5723 40.0967 33.5404 40.0383 33.5223 39.9752C33.5043 39.912 33.5005 39.8457 33.5112 39.7809C33.9613 37.0452 33.7076 33.0241 33.4155 30.1325C33.3393 29.3655 33.4665 28.5919 33.7844 27.8896C34.1022 27.1874 34.5995 26.5813 35.2261 26.1323L36.4992 25.0411C36.5839 24.9694 36.6918 24.9312 36.8027 24.9337L39.9656 25.0241C40.0796 25.0272 40.1881 25.074 40.2687 25.1548L40.7574 26.2371L40.7624 26.2408C41.3448 26.6689 41.8121 27.2347 42.1224 27.8875C42.4327 28.5403 42.5764 29.2599 42.5406 29.9818L42.075 39.6033C42.0691 39.7152 42.0215 39.8208 41.9417 39.8994C41.8619 39.978 41.7555 40.0239 41.6436 40.0281L33.9664 40.2979C33.9615 40.298 33.9565 40.2981 33.9516 40.2981C33.888 40.2982 33.8251 40.2846 33.7672 40.2584C33.7092 40.2322 33.6576 40.1938 33.6157 40.146Z" fill="#4460AA"/>
<path d="M24.4071 36.1305C24.4032 35.9746 24.4336 35.8199 24.4961 35.677C24.5585 35.5342 24.6516 35.4068 24.7686 35.3039C24.8856 35.2009 25.0238 35.1248 25.1734 35.081C25.323 35.0372 25.4804 35.0267 25.6345 35.0503L29.5913 32.2812L30.7019 34.3168L26.5256 36.3431C26.4688 36.5994 26.3199 36.8259 26.1073 36.9797C25.8947 37.1335 25.633 37.204 25.3718 37.1778C25.1107 37.1516 24.8683 37.0305 24.6904 36.8375C24.5126 36.6444 24.4118 36.3929 24.4071 36.1305L24.4071 36.1305Z" fill="#FFB8B8"/>
<path d="M27.7372 36.6111C27.6792 36.6024 27.6235 36.5822 27.5733 36.5518C27.5232 36.5214 27.4795 36.4813 27.4449 36.4339L25.9179 34.3535C25.848 34.258 25.8188 34.1386 25.8367 34.0215C25.8547 33.9045 25.9183 33.7993 26.0137 33.7291L35.0553 27.0926C35.4267 26.82 35.8912 26.7061 36.3465 26.776C36.572 26.8105 36.7884 26.8892 36.9835 27.0074C37.1786 27.1257 37.3484 27.2812 37.4834 27.4651C37.6184 27.649 37.7158 27.8576 37.7702 28.0792C37.8245 28.3007 37.8346 28.5308 37.8 28.7563C37.7655 28.9817 37.6868 29.1982 37.5686 29.3932C37.4503 29.5883 37.2948 29.7582 37.1109 29.8932L28.0693 36.5297C27.993 36.586 27.9007 36.6164 27.8059 36.6164C27.7829 36.6164 27.76 36.6146 27.7372 36.6111Z" fill="#4460AA"/>
<path d="M38.4352 23.9032C38.7585 23.5068 38.7231 22.903 38.4636 22.4622C38.2041 22.0214 37.7637 21.7178 37.3105 21.4807C36.8572 21.2436 36.3758 21.0571 35.9492 20.7747C35.5227 20.4924 35.5413 19.2971 35.4277 18.7983L35.6986 18.8885C35.5945 18.7554 35.5611 18.3618 35.457 18.2286C35.7631 18.2589 35.9984 18.5495 36.3045 18.5797L36.1279 18.1056C37.1774 18.0409 37.83 18.7703 38.8796 18.7056C39.3996 18.6735 39.9643 18.6532 40.3918 18.951C40.7633 19.2098 40.9514 19.6578 41.0748 20.0934C41.3397 21.0287 41.3809 22.0764 40.9233 22.934C40.4657 23.7917 39.411 24.3696 38.4895 24.0599L38.4352 23.9032Z" fill="#191A1B"/>
</g>
<defs>
<clipPath id="clip0_26_46376">
<rect width="62.9665" height="58" fill="white"/>
</clipPath>
</defs>
</svg>
