<svg width="42" height="56" viewBox="0 0 42 56" fill="none" xmlns="http://www.w3.org/2000/svg">
<g clip-path="url(#clip0_26_45962)">
<path d="M7 0C3.13906 0 0 3.13906 0 7V49C0 52.8609 3.13906 56 7 56H35C38.8609 56 42 52.8609 42 49V17.5H28C26.0641 17.5 24.5 15.9359 24.5 14V0H7ZM28 0V14H42L28 0ZM14 28C14 29.9359 12.4359 31.5 10.5 31.5C8.56406 31.5 7 29.9359 7 28C7 26.0641 8.56406 24.5 10.5 24.5C12.4359 24.5 14 26.0641 14 28ZM23.625 31.5C24.2047 31.5 24.7406 31.7844 25.0687 32.2547L34.6938 46.2547C35.0656 46.7906 35.0984 47.4906 34.8031 48.0594C34.5078 48.6281 33.9062 49 33.25 49H23.625H19.25H14H8.75C8.11562 49 7.53594 48.6609 7.22969 48.1141C6.92344 47.5672 6.92344 46.8891 7.25156 46.3531L12.5016 37.6031C12.8188 37.0781 13.3875 36.75 14 36.75C14.6125 36.75 15.1812 37.0672 15.4984 37.6031L16.8984 39.9438L22.1813 32.2656C22.5094 31.7953 23.0453 31.5109 23.625 31.5109V31.5Z" fill="#DF5A3C"/>
</g>
<defs>
<clipPath id="clip0_26_45962">
<rect width="42" height="56" fill="white"/>
</clipPath>
</defs>
</svg>
