<svg width="63" height="58" viewBox="0 0 63 58" fill="none" xmlns="http://www.w3.org/2000/svg">
<g clip-path="url(#clip0_26_46403)">
<path d="M30.6316 42.272H0.351938C0.258636 42.2719 0.16919 42.2276 0.103215 42.1488C0.0372403 42.0701 0.000121704 41.9633 0 41.8519V8.28534C0.000122404 8.17397 0.0372418 8.0672 0.103216 7.98844C0.169191 7.90969 0.258636 7.86538 0.351938 7.86523H30.6316C30.7249 7.86538 30.8143 7.90969 30.8803 7.98844C30.9463 8.0672 30.9834 8.17397 30.9835 8.28534V41.8518C30.9834 41.9632 30.9463 42.07 30.8803 42.1488C30.8144 42.2275 30.7249 42.2718 30.6316 42.2719V42.272Z" fill="#F1F2F5"/>
<path d="M35.6291 47.1861H5.3495C5.25619 47.1859 5.16675 47.1416 5.10077 47.0629C5.0348 46.9841 4.99768 46.8773 4.99756 46.766V13.1994C4.99768 13.088 5.0348 12.9813 5.10077 12.9025C5.16675 12.8238 5.25619 12.7794 5.3495 12.7793H35.6291C35.7224 12.7794 35.8119 12.8238 35.8779 12.9025C35.9438 12.9813 35.981 13.088 35.9811 13.1994V46.7659C35.981 46.8773 35.9439 46.9841 35.8779 47.0628C35.8119 47.1416 35.7225 47.1859 35.6291 47.186V47.1861Z" fill="white"/>
<path d="M35.6291 47.1861H5.3495C5.25619 47.1859 5.16675 47.1416 5.10077 47.0629C5.0348 46.9841 4.99768 46.8773 4.99756 46.766V13.1994C4.99768 13.088 5.0348 12.9813 5.10077 12.9025C5.16675 12.8238 5.25619 12.7794 5.3495 12.7793H35.6291C35.7224 12.7794 35.8119 12.8238 35.8779 12.9025C35.9438 12.9813 35.981 13.088 35.9811 13.1994V46.7659C35.981 46.8773 35.9439 46.9841 35.8779 47.0628C35.8119 47.1416 35.7225 47.1859 35.6291 47.186V47.1861ZM5.3495 12.947C5.29358 12.9472 5.23999 12.9737 5.20045 13.0209C5.16091 13.0681 5.13864 13.1321 5.13852 13.1989V46.7659C5.13864 46.8326 5.16091 46.8966 5.20045 46.9438C5.23999 46.991 5.29358 47.0176 5.3495 47.0177H35.6291C35.6851 47.0176 35.7387 46.991 35.7782 46.9438C35.8178 46.8966 35.84 46.8326 35.8401 46.7659V13.1994C35.84 13.1327 35.8177 13.0687 35.7782 13.0215C35.7387 12.9743 35.6851 12.9477 35.6291 12.9476L5.3495 12.947Z" fill="#DADBE1"/>
<path d="M30.6266 28.5089H11.3511C11.2564 28.5087 11.1657 28.4644 11.0988 28.3855C11.0319 28.3066 10.9942 28.1997 10.9941 28.0881V18.1161C10.9942 18.0045 11.0319 17.8976 11.0988 17.8187C11.1657 17.7398 11.2564 17.6954 11.3511 17.6953H30.6266C30.7212 17.6954 30.8119 17.7398 30.8788 17.8187C30.9458 17.8976 30.9834 18.0045 30.9835 18.1161V28.0881C30.9834 28.1997 30.9458 28.3066 30.8789 28.3855C30.8119 28.4644 30.7212 28.5087 30.6266 28.5089Z" fill="#4460AA"/>
<path d="M14.2207 21.627C14.1602 21.6272 14.1022 21.6791 14.0594 21.7712C14.0167 21.8634 13.9927 21.9883 13.9927 22.1185C13.9927 22.2487 14.0167 22.3736 14.0594 22.4657C14.1022 22.5579 14.1602 22.6098 14.2207 22.61H26.7577C26.8182 22.6098 26.8762 22.5579 26.919 22.4657C26.9618 22.3736 26.9858 22.2487 26.9858 22.1185C26.9858 21.9883 26.9618 21.8634 26.919 21.7712C26.8762 21.6791 26.8182 21.6272 26.7577 21.627H14.2207Z" fill="white"/>
<path d="M14.1681 23.5938C14.1215 23.594 14.0769 23.6459 14.044 23.738C14.0111 23.8302 13.9927 23.9551 13.9927 24.0853C13.9927 24.2155 14.0111 24.3404 14.044 24.4325C14.0769 24.5247 14.1215 24.5766 14.1681 24.5768H23.8119C23.8585 24.5766 23.9031 24.5247 23.936 24.4325C23.9689 24.3404 23.9874 24.2155 23.9874 24.0853C23.9874 23.9551 23.9689 23.8302 23.936 23.738C23.9031 23.6459 23.8585 23.594 23.8119 23.5938H14.1681Z" fill="white"/>
<path d="M8.23338 31.457C8.17028 31.4573 8.1098 31.5092 8.06522 31.6013C8.02064 31.6935 7.99561 31.8184 7.99561 31.9486C7.99561 32.0788 8.02064 32.2036 8.06522 32.2958C8.1098 32.3879 8.17028 32.4398 8.23338 32.4401H32.7445C32.8076 32.4398 32.8681 32.3879 32.9127 32.2958C32.9573 32.2036 32.9823 32.0788 32.9823 31.9486C32.9823 31.8184 32.9573 31.6935 32.9127 31.6013C32.8681 31.5092 32.8076 31.4573 32.7445 31.457H8.23338Z" fill="#DADBE1"/>
<path d="M8.23852 33.4238C8.17406 33.4241 8.11227 33.476 8.06673 33.5681C8.02118 33.6603 7.99561 33.7852 7.99561 33.9154C7.99561 34.0456 8.02118 34.1704 8.06673 34.2626C8.11227 34.3547 8.17406 34.4066 8.23852 34.4069H26.7426C26.8071 34.4066 26.8688 34.3547 26.9144 34.2626C26.9599 34.1704 26.9855 34.0456 26.9855 33.9154C26.9855 33.7852 26.9599 33.6603 26.9144 33.5681C26.8688 33.476 26.8071 33.4241 26.7426 33.4238H8.23852Z" fill="#DADBE1"/>
<path d="M32.1648 43.5524H23.4511C23.3382 43.5523 23.23 43.5081 23.1502 43.4296C23.0704 43.3511 23.0255 43.2447 23.0254 43.1337V41.7605C23.0255 41.6495 23.0704 41.5431 23.1502 41.4646C23.23 41.3861 23.3382 41.3419 23.4511 41.3418H32.1648C32.2777 41.3419 32.3859 41.3861 32.4657 41.4646C32.5455 41.5431 32.5904 41.6495 32.5905 41.7605V43.1337C32.5904 43.2447 32.5455 43.3511 32.4657 43.4296C32.3859 43.5081 32.2777 43.5523 32.1648 43.5524V43.5524Z" fill="#4460AA"/>
<path d="M50.8941 13.6633L36.1719 21.0703L36.2691 21.2573L50.9914 13.8503L50.8941 13.6633Z" fill="#DADBE1"/>
<path d="M60.9337 11.0285C60.9331 13.0609 60.3622 15.0537 59.2836 16.7872C58.2051 18.5208 56.6608 19.9278 54.8211 20.8532C54.7261 20.9016 54.63 20.9488 54.5339 20.9929C54.4773 21.0202 54.4207 21.0455 54.3641 21.0707C54.2253 21.1326 54.0843 21.1925 53.9423 21.2482C53.4371 21.4514 52.917 21.6167 52.3864 21.7429C52.3116 21.7618 52.2348 21.7786 52.159 21.7954C51.9678 21.8374 51.7752 21.8738 51.5812 21.9046C50.5224 22.079 49.4436 22.1038 48.3776 21.9781C48.1566 21.9529 47.9373 21.9207 47.7198 21.8815C47.6162 21.8626 47.5126 21.8426 47.4101 21.8216C47.3962 21.8185 47.3824 21.8153 47.3685 21.8132C47.0005 21.7371 46.6369 21.6417 46.2793 21.5276C46.087 21.4666 45.8959 21.4015 45.709 21.3301C45.6118 21.2933 45.5157 21.2555 45.4207 21.2167C45.3737 21.1978 45.3267 21.1778 45.2808 21.1578C43.4223 20.3698 41.8153 19.1018 40.6302 17.4883C39.445 15.8747 38.726 13.9758 38.5492 11.9928C38.3724 10.0099 38.7446 8.01682 39.6261 6.22503C40.5077 4.43325 41.8658 2.90952 43.5565 1.81543C45.2472 0.721338 47.2074 0.0976719 49.2293 0.010567C51.2512 -0.076538 53.2593 0.376166 55.0408 1.32067C56.8223 2.26518 58.3106 3.66627 59.3481 5.37538C60.3856 7.08449 60.9335 9.0379 60.9337 11.0285V11.0285Z" fill="#F1F2F5"/>
<path d="M49.6526 9.08398C48.8463 9.08493 48.0733 9.40039 47.5032 9.96117C46.933 10.522 46.6123 11.2823 46.6113 12.0753V14.3073C46.6116 14.4138 46.6548 14.5159 46.7315 14.5911C46.8081 14.6663 46.912 14.7086 47.0203 14.7085H52.2849C52.3932 14.7086 52.4971 14.6663 52.5738 14.5911C52.6505 14.5159 52.6937 14.4138 52.6939 14.3073V12.0753C52.6929 11.2823 52.3721 10.522 51.802 9.96127C51.2319 9.40051 50.4589 9.08502 49.6526 9.08398V9.08398Z" fill="#191A1B"/>
<path d="M48.0994 18.4752L47.8078 17.1833C47.7669 16.9997 47.6714 16.8322 47.5334 16.7022C47.4107 16.5973 47.267 16.519 47.1116 16.4722C47.0934 16.468 47.0753 16.4638 47.0561 16.4607C47.048 16.4584 47.0398 16.4567 47.0315 16.4554C46.9007 16.433 46.7665 16.4375 46.6376 16.4686C46.5086 16.4997 46.3875 16.5566 46.282 16.636C46.1765 16.7153 46.0888 16.8152 46.0245 16.9295C45.9601 17.0437 45.9205 17.1698 45.9081 17.2999L45.6603 18.8239L45.2812 21.1577C45.3272 21.1777 45.3742 21.1977 45.4211 21.2166C45.5162 21.2554 45.6123 21.2932 45.7094 21.33C45.8963 21.4014 46.0875 21.4665 46.2797 21.5274C46.6374 21.6416 47.001 21.737 47.3689 21.8131C47.3828 21.8152 47.3967 21.8184 47.4106 21.8215C47.5131 21.8425 47.6167 21.8625 47.7203 21.8814L48.2382 19.0907L48.0994 18.4752Z" fill="#191A1B"/>
<path d="M48.9024 14.675C50.1338 14.675 51.132 13.6931 51.132 12.482C51.132 11.2709 50.1338 10.2891 48.9024 10.2891C47.6711 10.2891 46.6729 11.2709 46.6729 12.482C46.6729 13.6931 47.6711 14.675 48.9024 14.675Z" fill="#FFB7B7"/>
<path d="M51.3127 19.8209L50.8364 16.1279L50.736 15.3454H50.7349L50.6901 15.3443C50.5384 15.3391 50.3911 15.338 50.2459 15.3433C49.3545 15.347 48.4804 15.5849 47.7139 16.0323C47.5133 16.1527 47.322 16.2875 47.1415 16.4356L47.133 16.444L47.1117 16.4713L46.3545 17.4293L46.3535 17.4482L46.2798 21.5266C46.6374 21.6407 47.001 21.7361 47.369 21.8123C47.3829 21.8144 47.3968 21.8175 47.4106 21.8207C47.5132 21.8417 47.6168 21.8616 47.7203 21.8805C47.9382 21.9194 48.1574 21.9516 48.3781 21.9772C49.4441 22.1028 50.5229 22.0781 51.5818 21.9037L51.3127 19.8209Z" fill="#4460AA"/>
<path d="M52.0916 16.1524C51.7409 15.7455 51.2647 15.4623 50.7355 15.3458H50.7344C50.5933 15.3145 50.4496 15.2959 50.3051 15.2901L50.2677 15.2891L50.2453 15.3437L48.4513 19.5975L48.1619 18.4611L47.7134 16.0327L47.7102 16.0148L47.6429 16.0537C47.435 16.1715 47.2385 16.3075 47.0556 16.4602C46.3278 17.0645 45.8422 17.9036 45.6855 18.8276C45.6397 19.1014 45.6229 19.3791 45.6353 19.6563L45.709 21.3295C45.8958 21.4009 46.087 21.4661 46.2792 21.527C46.6369 21.6411 47.0005 21.7365 47.3684 21.8127C47.3824 21.8148 47.3962 21.8179 47.4101 21.8211C47.5126 21.8421 47.6162 21.862 47.7198 21.8809C47.9376 21.9198 48.1569 21.952 48.3776 21.9776C49.4436 22.1032 50.5223 22.0784 51.5812 21.904C51.7755 21.8736 51.9681 21.8372 52.1589 21.7948C52.2348 21.778 52.3116 21.7612 52.3864 21.7423L52.2251 21.2749L52.6523 18.0304C52.696 17.6963 52.6687 17.3568 52.5722 17.0336C52.4757 16.7103 52.3121 16.4103 52.0916 16.1524V16.1524Z" fill="#191A1B"/>
<path d="M52.6217 16.2425C52.5453 16.0113 52.3813 15.8179 52.1636 15.7027C51.946 15.5875 51.6916 15.5592 51.4534 15.6238C51.4148 15.6335 51.377 15.6458 51.3402 15.6606C51.1631 15.7316 51.0115 15.853 50.905 16.0092C50.7985 16.1655 50.7418 16.3495 50.7422 16.5376L50.7465 18.5007L51.3124 19.8209L52.1593 21.7945C52.2351 21.7777 52.3119 21.7609 52.3867 21.742C52.9172 21.6158 53.4373 21.4505 53.9426 21.2473C54.0846 21.1916 54.2255 21.1317 54.3644 21.0698C54.421 21.0446 54.4776 21.0194 54.5342 20.992L52.6217 16.2425Z" fill="#191A1B"/>
<path d="M48.7528 9.88867H48.2979C47.66 9.88889 47.0483 10.1383 46.5973 10.5821C46.1463 11.0258 45.893 11.6276 45.8931 12.2551V12.2992H49.1127L49.1458 11.8444L49.3102 12.2992H49.8058L49.872 11.398L50.1987 12.2992H51.1576V12.2551C51.1571 11.6278 50.9035 11.0264 50.4527 10.5828C50.0019 10.1391 49.3905 9.88952 48.7528 9.88867Z" fill="#191A1B"/>
<path opacity="0.2" d="M62.6043 57.1037C62.4805 57.1142 62.3555 57.1215 62.2295 57.1268L62.5584 55.3496V55.4725L62.6043 57.1037Z" fill="#191A1B"/>
</g>
<defs>
<clipPath id="clip0_26_46403">
<rect width="62.9665" height="58" fill="white"/>
</clipPath>
</defs>
</svg>
