<svg width="238" height="358" viewBox="0 0 238 358" fill="none" xmlns="http://www.w3.org/2000/svg">
<g clip-path="url(#clip0_5_47147)">
<path d="M185.892 97.279C186.05 77.9097 186.839 58.3533 188.26 38.6097C188.284 38.2178 188.313 37.8317 188.342 37.4397C189.093 27.1614 190.011 16.8459 191.098 6.49346V6.43496C191.097 4.72861 190.417 3.09245 189.208 1.88588C187.999 0.679316 186.359 0.00101824 184.649 0H11.6961C9.99183 0.00334127 8.35784 0.678372 7.14997 1.87812C5.9421 3.07786 5.25816 4.70517 5.24705 6.4057C3.74617 20.6621 2.56969 34.8482 1.71763 48.9642C1.68246 49.4263 1.65901 49.8826 1.63556 50.3448C1.21344 57.3238 0.877306 64.2852 0.62716 71.2291C0.609572 71.6386 0.591979 72.0481 0.586116 72.4576C-1.01453 115.063 0.543359 157.728 5.24705 200.104C5.25938 201.803 5.9439 203.429 7.15167 204.628C8.35945 205.826 9.99273 206.501 11.6961 206.504H184.649C186.359 206.503 187.999 205.824 189.208 204.618C190.417 203.411 191.097 201.775 191.098 200.069V200.004C190.248 192.475 189.501 184.898 188.858 177.271C188.764 176.154 188.673 175.037 188.583 173.919C188.137 168.426 187.748 162.912 187.416 157.376C187.346 156.258 187.281 155.141 187.223 154.024C186.595 142.944 186.185 131.778 185.991 120.527C185.968 119.409 185.95 118.298 185.933 117.175C185.862 111.682 185.841 106.167 185.868 100.631C185.868 99.5137 185.874 98.3963 185.892 97.279Z" fill="#4460AA"/>
<path d="M238 43.8744C237.999 42.1681 237.319 40.5319 236.11 39.3253C234.901 38.1188 233.261 37.4405 231.551 37.4395H58.5983C56.894 37.4428 55.26 38.1178 54.0521 39.3176C52.8442 40.5173 52.1603 42.1446 52.1492 43.8452C46.3098 99.4022 45.3425 153.977 49.253 206.503C49.7279 213.003 50.2829 219.469 50.918 225.902C51.258 229.347 51.6196 232.783 52.0026 236.209C52.0495 236.654 52.0964 237.099 52.1492 237.543C52.1615 239.243 52.846 240.869 54.0538 242.067C55.2616 243.266 56.8949 243.94 58.5983 243.943H231.551C233.261 243.942 234.901 243.264 236.11 242.057C237.319 240.851 237.999 239.214 238 237.508V237.444C231.006 175.569 231.006 110.465 238 43.9329V43.8744Z" fill="white"/>
<path d="M238 43.8744C237.999 42.1681 237.319 40.5319 236.11 39.3253C234.901 38.1188 233.261 37.4405 231.551 37.4395H58.5983C56.894 37.4428 55.26 38.1178 54.0521 39.3176C52.8442 40.5173 52.1603 42.1446 52.1492 43.8452C46.3098 99.4022 45.3425 153.977 49.253 206.503C49.7279 213.003 50.2829 219.469 50.918 225.902C51.258 229.347 51.6196 232.783 52.0026 236.209C52.0495 236.654 52.0964 237.099 52.1492 237.543C52.1615 239.243 52.846 240.869 54.0538 242.067C55.2616 243.266 56.8949 243.94 58.5983 243.943H231.551C233.261 243.942 234.901 243.264 236.11 242.057C237.319 240.851 237.999 239.214 238 237.508V237.444C231.006 175.569 231.006 110.465 238 43.9329V43.8744ZM236.827 237.543C236.817 238.933 236.257 240.263 235.268 241.242C234.28 242.222 232.944 242.772 231.551 242.773H58.5983C57.1995 242.771 55.8586 242.216 54.8695 241.229C53.8804 240.242 53.3239 238.904 53.3218 237.508V237.444C53.2807 237.069 53.2397 236.689 53.1986 236.315C52.7941 232.735 52.4169 229.145 52.0671 225.545C51.4515 219.233 50.9063 212.886 50.4314 206.503C46.5209 154.006 47.4824 99.4666 53.3218 43.9329V43.8744C53.3239 42.4787 53.8804 41.1408 54.8695 40.1538C55.8586 39.1669 57.1995 38.6115 58.5983 38.6094H231.551C232.945 38.6099 234.282 39.1607 235.271 40.1417C236.26 41.1226 236.819 42.454 236.827 43.8452C229.833 110.429 229.833 175.604 236.827 237.543Z" fill="#DADBE1"/>
<path d="M70.5198 97.2793C70.0749 97.2805 69.6486 97.4576 69.3344 97.772C69.0202 98.0863 68.8438 98.5121 68.8438 98.9561C68.8438 99.4 69.0202 99.8259 69.3344 100.14C69.6486 100.455 70.0749 100.632 70.5198 100.633H211.069C211.514 100.632 211.941 100.455 212.255 100.14C212.569 99.8259 212.745 99.4 212.745 98.9561C212.745 98.5121 212.569 98.0863 212.255 97.772C211.941 97.4576 211.514 97.2805 211.069 97.2793H70.5198Z" fill="#DADBE1"/>
<path d="M70.5201 107.342C70.075 107.343 69.6483 107.52 69.3339 107.834C69.0194 108.148 68.8428 108.574 68.8428 109.019C68.8428 109.463 69.0194 109.889 69.3339 110.203C69.6483 110.518 70.075 110.695 70.5201 110.695H165.934C166.379 110.695 166.806 110.518 167.12 110.203C167.435 109.889 167.611 109.463 167.611 109.019C167.611 108.574 167.435 108.148 167.12 107.834C166.806 107.52 166.379 107.343 165.934 107.342H70.5201Z" fill="#DADBE1"/>
<path d="M70.5201 117.176C70.075 117.177 69.6483 117.354 69.3339 117.668C69.0194 117.982 68.8428 118.408 68.8428 118.853C68.8428 119.297 69.0194 119.723 69.3339 120.037C69.6483 120.352 70.075 120.529 70.5201 120.529H211.07C211.515 120.529 211.941 120.352 212.256 120.037C212.57 119.723 212.747 119.297 212.747 118.853C212.747 118.408 212.57 117.982 212.256 117.668C211.941 117.354 211.515 117.177 211.07 117.176H70.5201Z" fill="#DADBE1"/>
<path d="M70.5198 127.236C70.0749 127.238 69.6486 127.415 69.3344 127.729C69.0202 128.043 68.8438 128.469 68.8438 128.913C68.8438 129.357 69.0202 129.783 69.3344 130.097C69.6486 130.412 70.0749 130.589 70.5198 130.59H165.934C166.379 130.589 166.805 130.412 167.119 130.097C167.433 129.783 167.61 129.357 167.61 128.913C167.61 128.469 167.433 128.043 167.119 127.729C166.805 127.415 166.379 127.238 165.934 127.236H70.5198Z" fill="#DADBE1"/>
<path d="M70.5198 154.023C70.0749 154.025 69.6486 154.202 69.3344 154.516C69.0202 154.83 68.8438 155.256 68.8438 155.7C68.8438 156.144 69.0202 156.57 69.3344 156.884C69.6486 157.199 70.0749 157.376 70.5198 157.377H211.069C211.514 157.376 211.941 157.199 212.255 156.884C212.569 156.57 212.745 156.144 212.745 155.7C212.745 155.256 212.569 154.83 212.255 154.516C211.941 154.202 211.514 154.025 211.069 154.023H70.5198Z" fill="#DADBE1"/>
<path d="M70.5201 164.086C70.075 164.087 69.6483 164.264 69.3339 164.578C69.0194 164.893 68.8428 165.319 68.8428 165.763C68.8428 166.207 69.0194 166.633 69.3339 166.947C69.6483 167.262 70.075 167.439 70.5201 167.44H165.934C166.379 167.439 166.806 167.262 167.12 166.947C167.435 166.633 167.611 166.207 167.611 165.763C167.611 165.319 167.435 164.893 167.12 164.578C166.806 164.264 166.379 164.087 165.934 164.086H70.5201Z" fill="#DADBE1"/>
<path d="M70.5201 173.92C70.075 173.921 69.6483 174.098 69.3339 174.412C69.0194 174.727 68.8428 175.153 68.8428 175.597C68.8428 176.041 69.0194 176.467 69.3339 176.781C69.6483 177.096 70.075 177.273 70.5201 177.274H211.07C211.515 177.273 211.941 177.096 212.256 176.781C212.57 176.467 212.747 176.041 212.747 175.597C212.747 175.153 212.57 174.727 212.256 174.412C211.941 174.098 211.515 173.921 211.07 173.92H70.5201Z" fill="#DADBE1"/>
<path d="M70.5198 183.98C70.0749 183.982 69.6486 184.159 69.3344 184.473C69.0202 184.787 68.8438 185.213 68.8438 185.657C68.8438 186.101 69.0202 186.527 69.3344 186.841C69.6486 187.156 70.0749 187.333 70.5198 187.334H165.934C166.379 187.333 166.805 187.156 167.119 186.841C167.433 186.527 167.61 186.101 167.61 185.657C167.61 185.213 167.433 184.787 167.119 184.473C166.805 184.159 166.379 183.982 165.934 183.98H70.5198Z" fill="#DADBE1"/>
<path d="M98.3289 76.4595H71.4843C71.1366 76.4591 70.8033 76.3211 70.5574 76.0758C70.3116 75.8305 70.1732 75.4979 70.1729 75.151V70.8593C70.1732 70.5124 70.3116 70.1798 70.5574 69.9345C70.8033 69.6892 71.1366 69.5512 71.4843 69.5508H98.3289C98.6766 69.5512 99.0099 69.6892 99.2558 69.9345C99.5016 70.1798 99.6399 70.5124 99.6403 70.8593V75.151C99.6399 75.4979 99.5016 75.8305 99.2558 76.0758C99.0099 76.3211 98.6766 76.4591 98.3289 76.4595Z" fill="#4460AA"/>
<path d="M191.587 214.503L183.365 217.215C181.994 217.667 180.624 218.119 179.253 218.571C177.984 218.988 176.611 219.484 175.252 219.304C174.313 219.18 173.242 218.641 172.95 217.677C172.673 216.765 173.26 215.811 173.971 215.271C175.933 213.782 178.414 215.298 179.804 216.84C181.505 218.727 182.467 221.162 184.062 223.137C185.482 224.908 187.282 226.339 189.33 227.323C193.399 229.24 198.363 229.037 201.993 226.243C206.327 222.907 206.769 217.125 206.792 212.08C206.784 211.853 206.688 211.637 206.524 211.479C206.36 211.321 206.141 211.232 205.913 211.232C205.685 211.232 205.466 211.321 205.302 211.479C205.137 211.637 205.041 211.853 205.033 212.08C205.013 216.652 204.752 222.256 200.574 225.117C196.572 227.857 191.313 227.131 187.628 224.211C185.575 222.584 184.312 220.462 182.964 218.265C181.648 216.12 180.014 214.041 177.538 213.207C176.476 212.822 175.313 212.815 174.246 213.187C173.18 213.558 172.274 214.286 171.683 215.247C171.413 215.7 171.243 216.206 171.184 216.73C171.125 217.254 171.179 217.785 171.342 218.287C171.505 218.789 171.773 219.25 172.128 219.64C172.484 220.031 172.918 220.341 173.403 220.551C176.275 221.916 179.56 220.316 182.325 219.404L192.055 216.196C193.125 215.843 192.666 214.148 191.587 214.503L191.587 214.503Z" fill="#4460AA"/>
<path d="M167.221 343.495L161.455 345.39L151.384 324.102L159.894 321.305L167.221 343.495Z" fill="#FFB8B8"/>
<path d="M171.334 348.329L170.941 347.142L169.91 344.012L169.206 341.883L167.283 342.515L166.884 342.485L161.602 342.129L160.898 342.082L159.855 342.011L158.776 341.935L155.763 346.305H155.757C154.63 346.671 153.588 347.257 152.69 348.028C151.793 348.8 151.057 349.741 150.527 350.798C150.463 350.927 150.404 351.056 150.345 351.184C150.2 351.499 150.077 351.824 149.976 352.155C149.52 353.589 149.435 355.114 149.73 356.59C149.806 356.955 149.901 357.317 150.017 357.672L150.035 357.73L150.105 357.947L150.527 357.806L154.232 356.59L167.213 352.325L169.786 351.477L170.578 351.213H170.584L172.12 350.71L171.334 348.329Z" fill="#191A1B"/>
<path d="M112.568 348.501L106.497 348.5L103.609 325.137L112.569 325.137L112.568 348.501Z" fill="#FFB8B8"/>
<path d="M102.853 246.079L100.162 250.724C100.162 250.724 97.2052 251.53 98.1716 261.148C98.854 267.94 99.0753 298.348 100.793 318.103C101.508 326.325 102.483 332.701 103.857 334.762L104.704 335.518L113.537 336.36L113.76 336.283L117.004 313.423C117.586 309.32 117.499 305.149 116.746 301.073L116.159 294.638L124.293 262.056C124.293 262.056 132.575 282.939 137.852 302.828C139.122 307.616 143.946 310.661 145.776 314.77C146.388 316.146 146.991 317.48 147.578 318.76C151.447 327.188 153.386 333.323 154.854 333.833H156.026L163.062 331.493L164.446 328.021L153.681 296.393L145.62 245.327C130.261 237.086 115.854 236.169 102.853 246.079Z" fill="#191A1B"/>
<path d="M146.851 177.271C146.32 176.106 145.697 174.985 144.986 173.919C143.362 171.393 141.104 169.334 138.438 167.946L136.128 167.437L131.988 166.525L129.808 164.085L126.231 160.09H113.919L112.272 164.085L110.888 167.437L110.296 168.865L99.7548 174.124C99.7489 174.124 99.7489 174.124 99.743 174.13C99.8838 175.183 100.023 176.23 100.159 177.271C100.458 179.535 100.74 181.772 101.004 183.981C101.138 185.104 101.267 186.222 101.39 187.333C101.783 190.82 102.121 194.246 102.405 197.611C102.657 200.618 102.858 203.582 103.009 206.503C103.375 213.137 103.403 219.786 103.091 226.423C103.009 227.984 104.562 229.763 104.439 231.29C104.234 233.782 102.305 235.993 101.965 238.374C101.754 239.837 101.848 241.393 101.478 242.773C101.376 243.177 101.222 243.566 101.021 243.932C101.021 243.937 101.015 243.937 101.015 243.943C96.7941 251.466 100.107 247.874 99.7137 249.565L99.9014 249.612C99.9893 249.635 100.259 249.705 100.693 249.805C103.173 250.396 113.398 240.819 120.263 240.819C124.384 240.819 135.295 247.582 138.948 248.073C141.838 248.459 144.418 248.81 145.954 247.459C146.399 247.065 146.74 246.566 146.944 246.008L146.962 245.956L146.956 245.903L146.81 243.943L146.722 242.773L145.467 225.984C144.766 225.117 144.324 224.071 144.189 222.966C144.054 221.86 144.233 220.739 144.705 219.73L144.963 219.186L144.013 206.503L143.837 204.134L143.773 203.333V203.327L143.315 197.202L144.418 193.856V193.85L146.563 187.333L147.666 183.981L148.357 181.875L148.404 181.735C148.035 180.199 147.515 178.704 146.851 177.271Z" fill="#4460AA"/>
<path d="M157.547 237.766L145.728 207.286L140.238 196.157L150.794 190.338L159.296 205.284L164.995 236.512C165.892 237.123 166.585 237.988 166.986 238.995C167.387 240.002 167.477 241.106 167.244 242.165C167.011 243.223 166.467 244.189 165.68 244.936C164.893 245.683 163.901 246.179 162.83 246.359C161.759 246.54 160.658 246.396 159.669 245.948C158.681 245.499 157.849 244.766 157.281 243.842C156.713 242.918 156.435 241.846 156.482 240.763C156.53 239.68 156.901 238.636 157.547 237.766H157.547Z" fill="#FFB8B8"/>
<path d="M157.785 195.775L154.76 193.821L151.283 187.333L149.489 183.981L148.358 181.875L147.877 180.974L142.442 177.271L138.772 174.768L135.782 177.271L134.357 178.465L135.753 183.981L136.597 187.333L138.438 194.605L143.838 204.134L145.18 206.504L145.948 207.867L145.954 207.878L146.06 208.06L159.702 207.492L160.13 207.475L160.154 206.504L160.165 206.153C160.171 205.977 160.171 205.802 160.171 205.626C160.17 202.2 159.352 198.824 157.785 195.775Z" fill="#4460AA"/>
<path d="M54.5266 225.644L78.7054 203.598L87.1086 194.457L96.3719 202.162L85.4968 215.489L58.399 232.115C58.1537 233.171 57.5976 234.129 56.8022 234.867C56.0068 235.605 55.0084 236.089 53.9353 236.257C52.8622 236.424 51.7634 236.268 50.78 235.808C49.7967 235.347 48.9737 234.604 48.4168 233.674C47.8599 232.743 47.5946 231.668 47.6549 230.586C47.7152 229.504 48.0983 228.464 48.7552 227.601C49.412 226.738 50.3125 226.09 51.3409 225.742C52.3693 225.393 53.4787 225.359 54.5266 225.644H54.5266Z" fill="#FFB8B8"/>
<path d="M104.439 187.334L104.392 183.982L104.304 177.272L104.269 174.669L104.169 174.599C103.623 174.241 103.005 174.01 102.358 173.92C101.789 173.826 101.209 173.826 100.64 173.92C100.34 173.966 100.044 174.035 99.7548 174.125C99.749 174.125 99.7489 174.125 99.7431 174.131C98.0052 174.753 96.4707 175.837 95.3049 177.266L95.2991 177.272C93.541 179.359 91.9825 181.605 90.644 183.982C89.9815 185.105 89.3483 186.24 88.7562 187.334C86.5166 191.493 84.9043 195.097 84.875 195.161L78.1797 203.837L78.2735 203.995L79.7451 206.504L85.1389 215.706L85.9948 217.169L88.1817 216.005C90.7308 214.648 92.7407 212.465 93.8803 209.815L94.6601 206.844L94.9474 206.504L102.405 197.612L104.539 195.062L104.439 187.334Z" fill="#4460AA"/>
<path d="M129.992 148.642C130.991 142.503 126.812 136.718 120.66 135.722C114.507 134.726 108.71 138.895 107.711 145.034C106.713 151.174 110.891 156.958 117.044 157.954C123.197 158.951 128.994 154.781 129.992 148.642Z" fill="#FFB8B8"/>
<path d="M107.942 139.456C107.44 137.704 106.437 136.202 106.938 136.202C107.44 136.202 107.691 134.951 107.691 134.951C107.691 134.951 108.193 134.701 108.443 134.951C108.694 135.201 108.945 133.199 108.945 133.199C108.945 133.199 109.196 132.448 109.447 132.949C109.697 133.449 109.697 133.199 109.948 132.448C110.199 131.698 111.453 131.197 111.453 131.197C111.453 131.197 116.218 131.447 116.971 130.446C117.723 129.445 126.251 130.196 128.006 131.447C129.762 132.699 136.679 134.936 132.575 141.956C134.92 146.051 131.419 153.354 130.514 154.221C129.084 155.591 128.094 156.085 121.325 157.429C120 157.692 116.745 146.636 116.745 146.636C116.745 146.636 108.443 141.207 107.942 139.456Z" fill="#191A1B"/>
<path d="M112.935 347.587L112.572 347.44L106.041 344.784L105.038 344.381L100.805 347.587H100.799C98.4076 347.589 96.1149 348.539 94.4243 350.227C92.7337 351.915 91.7835 354.203 91.7822 356.59V356.882H114.958V347.587H112.935Z" fill="#191A1B"/>
<path d="M58.0003 0C57.0779 16.3606 51.0508 32.0237 40.7628 44.7962C30.4749 57.5687 16.4413 66.8111 0.626981 71.2291C0.609393 71.6386 0.5918 72.0481 0.585938 72.4576C16.7278 68.0268 31.0671 58.6487 41.5794 45.6477C52.0917 32.6466 58.2458 16.6792 59.1729 0H58.0003Z" fill="white"/>
<path d="M40.0429 0C37.3184 10.3291 32.5155 19.9969 25.9267 28.4147C19.338 36.8325 11.1012 43.8242 1.71781 48.9642C1.68264 49.4263 1.65919 49.8826 1.63574 50.3447C11.3604 45.1305 19.8998 37.9668 26.718 29.3031C33.5362 20.6395 38.4859 10.663 41.2565 0H40.0429Z" fill="white"/>
</g>
<defs>
<clipPath id="clip0_5_47147">
<rect width="238" height="358" fill="white"/>
</clipPath>
</defs>
</svg>
